<?xml version="1.0" encoding="UTF-8" standalone="no"?>
<!DOCTYPE svg PUBLIC "-//W3C//DTD SVG 1.1//EN" "http://www.w3.org/Graphics/SVG/1.1/DTD/svg11.dtd">
<svg xmlns="http://www.w3.org/2000/svg" version="1.1" viewBox="0.00 0.00 1200.00 400.00">
<g stroke-width="2.00" fill="none" stroke-linecap="butt">
<path stroke="#8caec1" vector-effect="non-scaling-stroke" d="
  M 161.86 86.88
  L 148.10 70.93
  A 1.34 1.34 0.0 0 0 147.09 70.47
  L 106.49 70.51
  Q 106.00 70.51 106.00 71.01
  L 106.00 343.54
  Q 106.00 343.76 106.22 343.76
  L 147.37 343.76
  Q 147.94 343.76 147.94 343.19
  L 148.26 242.12
  A 0.61 0.61 0.0 0 1 149.17 241.60
  Q 149.69 241.90 150.23 242.55
  C 175.84 273.78 218.96 279.40 255.13 265.18
  C 294.97 249.51 320.85 205.32 316.43 162.75
  C 310.56 106.32 261.94 63.31 204.12 71.24
  C 189.52 73.24 175.62 79.45 162.86 87.04
  Q 162.29 87.38 161.86 86.88"
/>
<path stroke="#8caec1" vector-effect="non-scaling-stroke" d="
  M 496.19 252.27
  L 496.51 271.92
  Q 496.51 272.33 496.92 272.33
  L 538.08 272.44
  A 0.83 0.83 0.0 0 0 538.91 271.61
  L 540.09 71.07
  Q 540.09 70.55 539.57 70.55
  L 497.28 70.18
  Q 496.73 70.17 496.39 70.61
  L 484.35 86.31
  Q 484.06 86.70 483.63 86.45
  C 431.58 55.88 370.07 69.86 340.58 123.49
  C 334.40 134.73 331.37 145.22 330.26 157.75
  C 328.23 180.74 330.54 201.77 342.01 221.77
  C 369.85 270.28 425.40 283.37 475.10 263.06
  C 481.91 260.28 489.04 255.87 495.82 252.06
  Q 496.19 251.85 496.19 252.27"
/>
<path stroke="#8a9752" vector-effect="non-scaling-stroke" d="
  M 1071.34 252.11
  A 0.45 0.45 0.0 0 1 1072.00 252.50
  L 1072.00 271.78
  Q 1072.00 272.32 1072.53 272.32
  L 1113.97 272.33
  A 0.24 0.24 0.0 0 0 1114.21 272.09
  L 1115.59 71.68
  Q 1115.60 70.25 1114.18 70.25
  L 1072.98 70.25
  A 2.10 2.09 -71.4 0 0 1071.31 71.08
  L 1059.79 86.28
  A 0.53 0.52 -56.3 0 1 1059.12 86.42
  C 1010.18 58.08 952.12 67.60 920.24 116.05
  C 907.13 135.98 903.10 158.76 905.19 182.11
  C 909.75 233.26 952.04 272.11 1003.26 272.16
  Q 1026.90 272.18 1048.51 263.91
  C 1056.04 261.03 1063.84 256.21 1071.34 252.11"
/>
<path stroke="#8caec1" vector-effect="non-scaling-stroke" d="
  M 657.50 207.56
  Q 656.86 208.82 656.31 207.52
  L 598.63 70.97
  Q 598.43 70.50 597.93 70.50
  L 552.51 70.50
  A 0.56 0.56 0.0 0 0 552.00 71.29
  Q 591.15 159.11 630.30 247.06
  Q 634.09 255.57 634.44 258.96
  Q 635.11 265.56 631.25 271.77
  Q 613.82 299.85 580.92 304.71
  Q 580.48 304.77 580.48 305.22
  L 580.51 342.75
  Q 580.51 343.34 581.09 343.29
  C 618.74 340.20 651.60 322.48 668.65 287.66
  Q 678.21 268.14 685.85 247.80
  C 708.01 188.83 731.35 130.36 752.64 71.05
  Q 752.83 70.50 752.25 70.50
  L 708.51 70.50
  A 0.90 0.90 0.0 0 0 707.68 71.05
  Q 705.24 76.84 702.98 83.03
  Q 681.52 141.92 660.33 200.90
  Q 659.01 204.58 657.50 207.56"
/>
<path stroke="#8a9752" vector-effect="non-scaling-stroke" d="
  M 740.17 227.76
  C 754.39 258.76 785.28 271.13 817.49 272.27
  C 837.67 272.98 856.89 268.76 874.17 257.69
  C 895.85 243.80 902.51 218.98 895.40 195.02
  C 886.94 166.52 850.64 159.07 825.42 152.12
  Q 813.55 148.84 801.51 142.73
  C 791.29 137.55 788.25 125.26 796.15 116.61
  C 800.16 112.22 806.52 109.70 812.50 108.77
  C 826.38 106.63 842.46 109.47 851.68 121.07
  Q 854.74 124.92 857.33 128.74
  A 1.39 1.38 58.5 0 0 859.14 129.18
  L 893.53 110.55
  A 0.48 0.48 0.0 0 0 893.72 109.88
  C 881.26 89.14 862.34 76.44 838.85 72.13
  C 820.27 68.71 799.47 70.06 782.23 78.22
  C 767.00 85.42 753.10 98.11 749.62 114.67
  C 745.15 135.89 748.33 156.20 767.67 168.78
  C 787.23 181.49 808.91 186.33 830.90 192.93
  C 839.70 195.57 851.80 200.43 854.25 210.64
  C 855.79 217.05 851.55 224.74 846.67 228.25
  Q 842.27 231.41 833.59 233.02
  C 811.11 237.18 786.12 231.48 777.46 207.71
  A 1.14 1.13 65.3 0 0 775.84 207.11
  L 740.38 227.10
  Q 739.97 227.33 740.17 227.76"
/>
<path stroke="#8a9752" vector-effect="non-scaling-stroke" d="
  M 322.93 230.43
  Q 308.36 268.93 270.87 284.73
  Q 254.14 291.78 237.44 294.13
  Q 232.94 294.76 237.49 294.76
  L 322.82 294.74
  A 0.39 0.38 0.0 0 0 323.21 294.36
  L 323.58 230.55
  A 0.34 0.34 0.0 0 0 322.93 230.43"
/>
<path stroke="#8caec1" vector-effect="non-scaling-stroke" d="
  M 279.75 169.83
  A 60.65 60.65 0.0 0 0 219.10 109.18
  A 60.65 60.65 0.0 0 0 158.45 169.83
  A 60.65 60.65 0.0 0 0 219.10 230.48
  A 60.65 60.65 0.0 0 0 279.75 169.83"
/>
<path stroke="#8caec1" vector-effect="non-scaling-stroke" d="
  M 489.61 169.83
  A 60.65 60.65 0.0 0 0 428.96 109.18
  A 60.65 60.65 0.0 0 0 368.31 169.83
  A 60.65 60.65 0.0 0 0 428.96 230.48
  A 60.65 60.65 0.0 0 0 489.61 169.83"
/>
<path stroke="#8a9752" vector-effect="non-scaling-stroke" d="
  M 1065.01 169.83
  A 60.64 60.64 0.0 0 0 1004.37 109.19
  A 60.64 60.64 0.0 0 0 943.73 169.83
  A 60.64 60.64 0.0 0 0 1004.37 230.47
  A 60.64 60.64 0.0 0 0 1065.01 169.83"
/>
</g>
<path fill="#185c83" d="
  M 91.81 0.00
  L 1122.56 0.00
  Q 1126.96 0.76 1131.32 1.63
  C 1149.42 5.25 1163.31 17.74 1169.93 34.70
  C 1171.78 39.43 1173.99 47.63 1173.99 53.00
  Q 1174.00 196.51 1174.00 340.03
  C 1174.00 345.25 1172.69 352.10 1170.95 357.07
  C 1162.51 381.24 1141.51 395.00 1115.90 395.00
  Q 604.58 395.00 93.25 395.00
  Q 88.74 395.00 81.78 393.17
  C 56.09 386.42 40.01 365.18 40.00 338.27
  Q 40.00 195.51 40.00 52.75
  C 40.00 48.26 42.07 39.50 44.07 34.63
  Q 56.90 3.55 91.81 0.00
  Z
  M 161.86 86.88
  L 148.10 70.93
  A 1.34 1.34 0.0 0 0 147.09 70.47
  L 106.49 70.51
  Q 106.00 70.51 106.00 71.01
  L 106.00 343.54
  Q 106.00 343.76 106.22 343.76
  L 147.37 343.76
  Q 147.94 343.76 147.94 343.19
  L 148.26 242.12
  A 0.61 0.61 0.0 0 1 149.17 241.60
  Q 149.69 241.90 150.23 242.55
  C 175.84 273.78 218.96 279.40 255.13 265.18
  C 294.97 249.51 320.85 205.32 316.43 162.75
  C 310.56 106.32 261.94 63.31 204.12 71.24
  C 189.52 73.24 175.62 79.45 162.86 87.04
  Q 162.29 87.38 161.86 86.88
  Z
  M 496.19 252.27
  L 496.51 271.92
  Q 496.51 272.33 496.92 272.33
  L 538.08 272.44
  A 0.83 0.83 0.0 0 0 538.91 271.61
  L 540.09 71.07
  Q 540.09 70.55 539.57 70.55
  L 497.28 70.18
  Q 496.73 70.17 496.39 70.61
  L 484.35 86.31
  Q 484.06 86.70 483.63 86.45
  C 431.58 55.88 370.07 69.86 340.58 123.49
  C 334.40 134.73 331.37 145.22 330.26 157.75
  C 328.23 180.74 330.54 201.77 342.01 221.77
  C 369.85 270.28 425.40 283.37 475.10 263.06
  C 481.91 260.28 489.04 255.87 495.82 252.06
  Q 496.19 251.85 496.19 252.27
  Z
  M 1071.34 252.11
  A 0.45 0.45 0.0 0 1 1072.00 252.50
  L 1072.00 271.78
  Q 1072.00 272.32 1072.53 272.32
  L 1113.97 272.33
  A 0.24 0.24 0.0 0 0 1114.21 272.09
  L 1115.59 71.68
  Q 1115.60 70.25 1114.18 70.25
  L 1072.98 70.25
  A 2.10 2.09 -71.4 0 0 1071.31 71.08
  L 1059.79 86.28
  A 0.53 0.52 -56.3 0 1 1059.12 86.42
  C 1010.18 58.08 952.12 67.60 920.24 116.05
  C 907.13 135.98 903.10 158.76 905.19 182.11
  C 909.75 233.26 952.04 272.11 1003.26 272.16
  Q 1026.90 272.18 1048.51 263.91
  C 1056.04 261.03 1063.84 256.21 1071.34 252.11
  Z
  M 657.50 207.56
  Q 656.86 208.82 656.31 207.52
  L 598.63 70.97
  Q 598.43 70.50 597.93 70.50
  L 552.51 70.50
  A 0.56 0.56 0.0 0 0 552.00 71.29
  Q 591.15 159.11 630.30 247.06
  Q 634.09 255.57 634.44 258.96
  Q 635.11 265.56 631.25 271.77
  Q 613.82 299.85 580.92 304.71
  Q 580.48 304.77 580.48 305.22
  L 580.51 342.75
  Q 580.51 343.34 581.09 343.29
  C 618.74 340.20 651.60 322.48 668.65 287.66
  Q 678.21 268.14 685.85 247.80
  C 708.01 188.83 731.35 130.36 752.64 71.05
  Q 752.83 70.50 752.25 70.50
  L 708.51 70.50
  A 0.90 0.90 0.0 0 0 707.68 71.05
  Q 705.24 76.84 702.98 83.03
  Q 681.52 141.92 660.33 200.90
  Q 659.01 204.58 657.50 207.56
  Z
  M 740.17 227.76
  C 754.39 258.76 785.28 271.13 817.49 272.27
  C 837.67 272.98 856.89 268.76 874.17 257.69
  C 895.85 243.80 902.51 218.98 895.40 195.02
  C 886.94 166.52 850.64 159.07 825.42 152.12
  Q 813.55 148.84 801.51 142.73
  C 791.29 137.55 788.25 125.26 796.15 116.61
  C 800.16 112.22 806.52 109.70 812.50 108.77
  C 826.38 106.63 842.46 109.47 851.68 121.07
  Q 854.74 124.92 857.33 128.74
  A 1.39 1.38 58.5 0 0 859.14 129.18
  L 893.53 110.55
  A 0.48 0.48 0.0 0 0 893.72 109.88
  C 881.26 89.14 862.34 76.44 838.85 72.13
  C 820.27 68.71 799.47 70.06 782.23 78.22
  C 767.00 85.42 753.10 98.11 749.62 114.67
  C 745.15 135.89 748.33 156.20 767.67 168.78
  C 787.23 181.49 808.91 186.33 830.90 192.93
  C 839.70 195.57 851.80 200.43 854.25 210.64
  C 855.79 217.05 851.55 224.74 846.67 228.25
  Q 842.27 231.41 833.59 233.02
  C 811.11 237.18 786.12 231.48 777.46 207.71
  A 1.14 1.13 65.3 0 0 775.84 207.11
  L 740.38 227.10
  Q 739.97 227.33 740.17 227.76
  Z
  M 322.93 230.43
  Q 308.36 268.93 270.87 284.73
  Q 254.14 291.78 237.44 294.13
  Q 232.94 294.76 237.49 294.76
  L 322.82 294.74
  A 0.39 0.38 0.0 0 0 323.21 294.36
  L 323.58 230.55
  A 0.34 0.34 0.0 0 0 322.93 230.43
  Z"
/>
<path fill="#ffffff" d="
  M 162.86 87.04
  C 175.62 79.45 189.52 73.24 204.12 71.24
  C 261.94 63.31 310.56 106.32 316.43 162.75
  C 320.85 205.32 294.97 249.51 255.13 265.18
  C 218.96 279.40 175.84 273.78 150.23 242.55
  Q 149.69 241.90 149.17 241.60
  A 0.61 0.61 0.0 0 0 148.26 242.12
  L 147.94 343.19
  Q 147.94 343.76 147.37 343.76
  L 106.22 343.76
  Q 106.00 343.76 106.00 343.54
  L 106.00 71.01
  Q 106.00 70.51 106.49 70.51
  L 147.09 70.47
  A 1.34 1.34 0.0 0 1 148.10 70.93
  L 161.86 86.88
  Q 162.29 87.38 162.86 87.04
  Z
  M 279.75 169.83
  A 60.65 60.65 0.0 0 0 219.10 109.18
  A 60.65 60.65 0.0 0 0 158.45 169.83
  A 60.65 60.65 0.0 0 0 219.10 230.48
  A 60.65 60.65 0.0 0 0 279.75 169.83
  Z"
/>
<path fill="#ffffff" d="
  M 495.82 252.06
  C 489.04 255.87 481.91 260.28 475.10 263.06
  C 425.40 283.37 369.85 270.28 342.01 221.77
  C 330.54 201.77 328.23 180.74 330.26 157.75
  C 331.37 145.22 334.40 134.73 340.58 123.49
  C 370.07 69.86 431.58 55.88 483.63 86.45
  Q 484.06 86.70 484.35 86.31
  L 496.39 70.61
  Q 496.73 70.17 497.28 70.18
  L 539.57 70.55
  Q 540.09 70.55 540.09 71.07
  L 538.91 271.61
  A 0.83 0.83 0.0 0 1 538.08 272.44
  L 496.92 272.33
  Q 496.51 272.33 496.51 271.92
  L 496.19 252.27
  Q 496.19 251.85 495.82 252.06
  Z
  M 489.61 169.83
  A 60.65 60.65 0.0 0 0 428.96 109.18
  A 60.65 60.65 0.0 0 0 368.31 169.83
  A 60.65 60.65 0.0 0 0 428.96 230.48
  A 60.65 60.65 0.0 0 0 489.61 169.83
  Z"
/>
<path fill="#fbd120" d="
  M 1071.34 252.11
  C 1063.84 256.21 1056.04 261.03 1048.51 263.91
  Q 1026.90 272.18 1003.26 272.16
  C 952.04 272.11 909.75 233.26 905.19 182.11
  C 903.10 158.76 907.13 135.98 920.24 116.05
  C 952.12 67.60 1010.18 58.08 1059.12 86.42
  A 0.53 0.52 -56.3 0 0 1059.79 86.28
  L 1071.31 71.08
  A 2.10 2.09 -71.4 0 1 1072.98 70.25
  L 1114.18 70.25
  Q 1115.60 70.25 1115.59 71.68
  L 1114.21 272.09
  A 0.24 0.24 0.0 0 1 1113.97 272.33
  L 1072.53 272.32
  Q 1072.00 272.32 1072.00 271.78
  L 1072.00 252.50
  A 0.45 0.45 0.0 0 0 1071.34 252.11
  Z
  M 1065.01 169.83
  A 60.64 60.64 0.0 0 0 1004.37 109.19
  A 60.64 60.64 0.0 0 0 943.73 169.83
  A 60.64 60.64 0.0 0 0 1004.37 230.47
  A 60.64 60.64 0.0 0 0 1065.01 169.83
  Z"
/>
<path fill="#ffffff" d="
  M 657.50 207.56
  Q 659.01 204.58 660.33 200.90
  Q 681.52 141.92 702.98 83.03
  Q 705.24 76.84 707.68 71.05
  A 0.90 0.90 0.0 0 1 708.51 70.50
  L 752.25 70.50
  Q 752.83 70.50 752.64 71.05
  C 731.35 130.36 708.01 188.83 685.85 247.80
  Q 678.21 268.14 668.65 287.66
  C 651.60 322.48 618.74 340.20 581.09 343.29
  Q 580.51 343.34 580.51 342.75
  L 580.48 305.22
  Q 580.48 304.77 580.92 304.71
  Q 613.82 299.85 631.25 271.77
  Q 635.11 265.56 634.44 258.96
  Q 634.09 255.57 630.30 247.06
  Q 591.15 159.11 552.00 71.29
  A 0.56 0.56 0.0 0 1 552.51 70.50
  L 597.93 70.50
  Q 598.43 70.50 598.63 70.97
  L 656.31 207.52
  Q 656.86 208.82 657.50 207.56
  Z"
/>
<path fill="#fbd120" d="
  M 817.49 272.27
  C 785.28 271.13 754.39 258.76 740.17 227.76
  Q 739.97 227.33 740.38 227.10
  L 775.84 207.11
  A 1.14 1.13 65.3 0 1 777.46 207.71
  C 786.12 231.48 811.11 237.18 833.59 233.02
  Q 842.27 231.41 846.67 228.25
  C 851.55 224.74 855.79 217.05 854.25 210.64
  C 851.80 200.43 839.70 195.57 830.90 192.93
  C 808.91 186.33 787.23 181.49 767.67 168.78
  C 748.33 156.20 745.15 135.89 749.62 114.67
  C 753.10 98.11 767.00 85.42 782.23 78.22
  C 799.47 70.06 820.27 68.71 838.85 72.13
  C 862.34 76.44 881.26 89.14 893.72 109.88
  A 0.48 0.48 0.0 0 1 893.53 110.55
  L 859.14 129.18
  A 1.39 1.38 58.5 0 1 857.33 128.74
  Q 854.74 124.92 851.68 121.07
  C 842.46 109.47 826.38 106.63 812.50 108.77
  C 806.52 109.70 800.16 112.22 796.15 116.61
  C 788.25 125.26 791.29 137.55 801.51 142.73
  Q 813.55 148.84 825.42 152.12
  C 850.64 159.07 886.94 166.52 895.40 195.02
  C 902.51 218.98 895.85 243.80 874.17 257.69
  C 856.89 268.76 837.67 272.98 817.49 272.27
  Z"
/>
<circle fill="#185c83" cx="219.10" cy="169.83" r="60.65"/>
<circle fill="#185c83" cx="428.96" cy="169.83" r="60.65"/>
<circle fill="#185c83" cx="1004.37" cy="169.83" r="60.64"/>
<path fill="#fbd120" d="
  M 322.93 230.43
  A 0.34 0.34 0.0 0 1 323.58 230.55
  L 323.21 294.36
  A 0.39 0.38 0.0 0 1 322.82 294.74
  L 237.49 294.76
  Q 232.94 294.76 237.44 294.13
  Q 254.14 291.78 270.87 284.73
  Q 308.36 268.93 322.93 230.43
  Z"
/>
</svg>
