<svg width="68" height="67" viewBox="0 0 68 67" fill="none" xmlns="http://www.w3.org/2000/svg">
<rect x="0.40918" y="0.198242" width="66.5946" height="66.5946" rx="11.0991" fill="white"/>
<path d="M49.1215 38.8913C49.1215 43.1481 45.6706 46.599 41.4138 46.599C40.0334 46.599 38.7377 46.2361 37.617 45.6006C35.644 44.4816 34.2131 42.5175 33.8167 40.2003C33.744 39.7748 33.7061 39.3375 33.7061 38.8913C33.7061 36.9122 34.452 35.1073 35.6781 33.7424C37.0891 32.1716 39.1361 31.1836 41.4138 31.1836C45.6706 31.1836 49.1215 34.6345 49.1215 38.8913Z" stroke="#1D90F5" stroke-width="2.77478" stroke-linecap="round" stroke-linejoin="round"/>
<path d="M41.4141 24.2461V30.4123V31.183C39.1364 31.183 37.0895 32.171 35.6785 33.7418C34.4524 35.1067 33.7064 36.9116 33.7064 38.8907C33.7064 39.3369 33.7444 39.7743 33.8171 40.1997C34.2135 42.5169 35.6444 44.4811 37.6174 45.6C35.5652 46.2205 32.8413 46.5985 29.8526 46.5985C23.4673 46.5985 18.291 44.873 18.291 42.7446V36.5784V30.4123V24.2461" stroke="#1D90F5" stroke-width="2.77478" stroke-linecap="round" stroke-linejoin="round"/>
<path d="M41.4141 24.2464C41.4141 26.3748 36.2379 28.1003 29.8526 28.1003C23.4673 28.1003 18.291 26.3748 18.291 24.2464C18.291 22.118 23.4673 20.3926 29.8526 20.3926C36.2379 20.3926 41.4141 22.118 41.4141 24.2464Z" stroke="#1D90F5" stroke-width="2.77478" stroke-linecap="round" stroke-linejoin="round"/>
<path d="M18.291 36.5781C18.291 38.7065 23.4673 40.432 29.8526 40.432C31.2454 40.432 32.5806 40.3499 33.8171 40.1994" stroke="#1D90F5" stroke-width="2.77478" stroke-linecap="round" stroke-linejoin="round"/>
<path d="M18.291 30.4131C18.291 32.5415 23.4673 34.2669 29.8526 34.2669C31.9771 34.2669 33.9677 34.0759 35.6785 33.7427" stroke="#1D90F5" stroke-width="2.77478" stroke-linecap="round" stroke-linejoin="round"/>
<path d="M44.8826 37.3496L40.6434 41.5889L38.3311 39.2765" stroke="#1D90F5" stroke-width="2.77478" stroke-linecap="round" stroke-linejoin="round"/>
</svg>
