<svg width="267" height="87" viewBox="0 0 267 87" fill="none" xmlns="http://www.w3.org/2000/svg">
<g clip-path="url(#clip0_1698_14678)">
<path d="M45.8926 64.9093C45.1653 64.9093 54.7559 64.2891 61.2645 58.5317C64.1823 55.9507 65.7819 52.9347 66.713 50.502C66.6998 55.303 66.6881 60.1041 66.6749 64.9052C59.7469 64.9066 52.8205 64.908 45.8926 64.9093Z" fill="#FED21C"/>
<path d="M62.8537 28.1568C61.3039 25.0159 59.0107 22.4528 56.2103 20.2793C54.9669 19.3134 53.5769 18.4681 52.14 17.7711C47.649 15.5867 42.8441 15.0817 37.8824 15.7788C34.425 16.2645 30.9721 18.1251 29.8504 18.6602C29.3842 18.8825 29.0044 19.0746 28.7507 19.205C27.6159 17.9783 26.481 16.753 25.3447 15.5263C22.0765 15.5222 18.8083 15.5181 15.54 15.5126C15.5386 35.5814 15.5371 55.6502 15.5371 75.7176C18.8112 75.7176 22.0867 75.7162 25.3608 75.7162C25.4136 68.1338 25.4649 60.5514 25.5177 52.9704C25.8198 53.2846 26.1218 53.5988 26.4238 53.913C26.4238 53.913 27.1643 54.7363 27.8622 55.3483C29.3358 56.6422 31.0366 57.6521 32.9178 58.3985C36.9851 60.0122 41.2738 60.4169 45.5889 59.7089C54.3423 58.2723 60.3846 53.4465 63.5429 45.8298C65.9651 39.9845 65.7246 33.976 62.8537 28.1568ZM42.1594 50.7736C34.2638 50.7736 27.8637 44.7842 27.8637 37.3953C27.8637 30.0064 34.2638 24.017 42.1594 24.017C50.055 24.017 56.4551 30.0064 56.4551 37.3953C56.4551 44.7842 50.055 50.7736 42.1594 50.7736Z" fill="white"/>
<path d="M107.489 15.498C106.507 16.6918 105.524 17.8856 104.542 19.0793C103.148 18.3027 101.928 17.7758 101.045 17.4314C95.422 15.2401 90.733 15.483 89.7624 15.5488C88.9295 15.6051 88.2815 15.6901 87.8753 15.7464C79.6087 16.8729 73.9403 21.3502 70.2146 28.1395C68.9844 30.3816 68.4478 32.85 68.2352 35.3693C67.8159 40.3295 68.5622 45.0387 71.4023 49.3705C73.1353 52.0146 75.3361 54.2347 77.9973 56.0322C78.3331 56.2586 80.0457 57.3837 82.2362 58.266C87.497 60.386 92.6963 59.9606 94.5349 59.7918C96.617 59.5997 99.6975 59.0948 103.196 57.6486C104.623 56.9117 106.049 56.1763 107.476 55.4394C107.476 56.9488 107.476 58.4581 107.476 59.9675C110.8 59.9675 114.122 59.9675 117.446 59.9675C117.544 45.1484 117.641 30.3294 117.739 15.5104C114.322 15.5077 110.905 15.5035 107.489 15.498ZM91.5717 50.7728C83.676 50.7728 77.276 44.7835 77.276 37.3945C77.276 30.0056 83.676 24.0162 91.5717 24.0162C99.4673 24.0162 105.867 30.0056 105.867 37.3945C105.867 44.7835 99.4673 50.7728 91.5717 50.7728Z" fill="white"/>
<path d="M242.969 15.498C241.986 16.6918 241.004 17.8856 240.021 19.0793C238.627 18.3027 237.407 17.7758 236.524 17.4314C230.901 15.2401 226.212 15.483 225.242 15.5488C224.409 15.6051 223.761 15.6901 223.355 15.7464C215.088 16.8729 209.42 21.3502 205.694 28.1395C204.464 30.3816 203.927 32.85 203.715 35.3693C203.295 40.3295 204.042 45.0387 206.882 49.3705C208.615 52.0146 210.816 54.2347 213.477 56.0322C213.813 56.2586 215.525 57.3837 217.716 58.266C222.977 60.386 228.176 59.9606 230.014 59.7918C232.096 59.5997 235.177 59.0948 238.675 57.6486C240.102 56.9117 241.529 56.1763 242.955 55.4394C242.955 56.9488 242.955 58.4581 242.955 59.9675C246.279 59.9675 249.602 59.9675 252.926 59.9675C253.024 45.1484 253.121 30.3294 253.219 15.5104C249.801 15.5077 246.385 15.5035 242.969 15.498ZM227.051 50.7728C219.156 50.7728 212.755 44.7835 212.755 37.3945C212.755 30.0056 219.156 24.0162 227.051 24.0162C234.947 24.0162 241.347 30.0056 241.347 37.3945C241.347 44.7835 234.947 50.7728 227.051 50.7728Z" fill="#FED21C"/>
<path d="M127.269 75.6124C127.269 72.7762 127.269 69.9413 127.269 67.1051C128.839 66.9295 131.422 66.4328 134.045 64.859C135.755 63.834 136.833 62.7404 137.456 62.0982C138.465 61.0609 139.034 60.2239 139.438 59.4198C139.957 58.388 140.047 57.7211 140.017 57.1819C139.985 56.5919 139.818 56.1487 139.734 55.9758C138.325 53.0751 136.962 50.1538 135.578 47.2422C134.224 44.3964 132.865 41.5533 131.51 38.7075C130.298 36.1608 129.087 33.6114 127.874 31.0647C126.552 28.2848 125.235 25.5035 123.908 22.7249C122.898 20.6091 121.874 18.5001 120.864 16.3843C120.742 16.1277 120.662 15.8547 120.543 15.5391C124.226 15.5391 127.83 15.5391 131.515 15.5391C131.928 16.4666 132.34 17.3997 132.757 18.33C134.644 22.5383 136.529 26.748 138.422 30.9536C139.639 33.6567 140.863 36.357 142.089 39.0574C143.057 41.1911 144.032 43.3206 145.007 45.4515C145.066 45.5791 145.157 45.6944 145.312 45.9428C145.774 44.8986 146.227 43.9751 146.595 43.0215C147.595 40.4309 148.544 37.8239 149.538 35.2305C150.831 31.8551 152.146 28.4879 153.457 25.1193C154.596 22.1925 155.743 19.2699 156.886 16.3445C156.99 16.0783 157.103 15.8162 157.216 15.5404C160.759 15.5404 164.247 15.5404 167.823 15.5404C165.204 22.3956 163.037 27.7757 161.515 31.4846C160.791 33.2505 160.223 34.6062 158.048 39.8958C156.728 43.1066 155.413 46.3187 154.096 49.5295C152.917 52.4027 151.79 55.2952 150.542 58.1424C149.662 60.1498 148.724 62.1476 147.624 64.0549C145.969 66.9226 143.768 69.3966 140.904 71.3107C139.465 72.2726 138.251 72.7981 137.328 73.2001C135.192 74.1318 131.805 75.2926 127.269 75.6124Z" fill="white"/>
<path d="M201.056 24.2791C198.157 25.7514 195.383 27.1592 192.623 28.5601C192.116 27.9139 191.651 27.3005 191.165 26.705C189.581 24.7676 187.341 24.0582 184.873 23.8441C183.197 23.6987 181.543 23.862 179.952 24.4383C177.708 25.2506 176.53 27.2127 177.127 29.1831C177.445 30.2328 178.191 30.9847 179.193 31.4293C180.693 32.0934 182.224 32.7259 183.801 33.1979C186.235 33.9252 188.738 34.4452 191.176 35.1601C194.123 36.0232 196.876 37.2759 199.11 39.3259C200.563 40.6582 201.403 42.3391 201.762 44.1997C202.211 46.5213 202.101 48.8348 201.302 51.085C200.265 54.0063 198.031 55.9726 195.247 57.4243C190.782 59.7528 185.955 60.2824 180.938 59.842C178.051 59.5895 175.297 58.9474 172.705 57.707C169.994 56.4089 167.705 54.6745 166.073 52.239C165.623 51.5667 165.215 50.871 164.731 50.0985C167.649 48.5617 170.53 47.0441 173.466 45.4977C173.659 45.908 173.796 46.2016 173.938 46.4939C175.123 48.939 177.161 50.4511 179.901 51.1152C182.578 51.7643 185.279 51.7327 187.967 51.1139C189.525 50.7557 190.726 49.9517 191.39 48.5658C191.923 47.4571 192.003 46.3677 191.169 45.2878C190.263 44.1174 189.058 43.3325 187.649 42.8962C185.19 42.1346 182.699 41.4609 180.199 40.8229C177.263 40.0737 174.455 39.0364 171.865 37.5613C168.463 35.6252 166.633 32.7767 166.67 29.0006C166.682 27.8453 166.734 26.6652 166.987 25.5401C167.705 22.3444 169.786 20.0365 172.674 18.3007C177.079 15.6539 181.926 15.1434 186.987 15.717C191.892 16.2727 195.991 18.2925 199.222 21.7914C199.895 22.5214 200.403 23.3845 201.056 24.2791Z" fill="#FED21C"/>
</g>
<defs>
<clipPath id="clip0_1698_14678">
<rect width="267" height="87" fill="white"/>
</clipPath>
</defs>
</svg>
