<svg width="49" height="49" viewBox="0 0 49 49" fill="none" xmlns="http://www.w3.org/2000/svg">
<rect x="0.169922" y="10.8193" width="39.1932" height="39.1932" rx="9.40636" transform="rotate(-15 0.169922 10.8193)" fill="#8F55BD"/>
<path d="M33.2516 24.5088L29.6756 25.467C28.3623 25.8181 27.0131 25.0398 26.6604 23.7269C26.3086 22.4139 27.0887 21.065 28.4016 20.7124L31.9776 19.7542" stroke="white" stroke-width="1.56773" stroke-linecap="round" stroke-linejoin="round"/>
<path d="M29.4283 22.9267L29.153 23.0005" stroke="white" stroke-width="1.56773" stroke-linecap="round" stroke-linejoin="round"/>
<path fill-rule="evenodd" clip-rule="evenodd" d="M18.2839 17.7301L25.9191 15.6843C28.4792 14.9983 31.1107 16.5176 31.7967 19.0777L33.4954 25.4175C34.1814 27.9776 32.6621 30.6091 30.102 31.2951L22.4669 33.3409C19.9068 34.0269 17.2752 32.5076 16.5893 29.9475L14.8905 23.6077C14.2045 21.0476 15.7239 18.4161 18.2839 17.7301Z" stroke="white" stroke-width="1.56773" stroke-linecap="round" stroke-linejoin="round"/>
<path d="M18.729 21.9074L23.4981 20.6295" stroke="white" stroke-width="1.56773" stroke-linecap="round" stroke-linejoin="round"/>
</svg>
