<svg width="60" height="61" viewBox="0 0 60 61" fill="none" xmlns="http://www.w3.org/2000/svg">
<rect x="13.0469" y="0.936523" width="48.5288" height="48.5288" rx="11.6469" transform="rotate(15 13.0469 0.936523)" fill="#CE2121"/>
<path d="M27.0536 42.4114C22.6786 41.2392 19.965 37.1476 20.9995 33.2866L22.0839 29.2398C22.2041 28.7913 22.6756 28.5191 23.124 28.6392C23.5725 28.7594 23.8447 29.2309 23.7245 29.6794C22.9567 32.545 25.078 35.4345 28.6655 36.3958C32.253 37.3571 35.5349 35.9153 36.3027 33.0497C36.4229 32.6012 36.8944 32.329 37.3429 32.4492C37.7913 32.5693 38.0635 33.0408 37.9434 33.4893L36.859 37.5362C35.8245 41.3971 31.4286 43.5837 27.0536 42.4114ZM22.6079 33.8466C21.9079 36.7655 24.0698 39.8535 27.4932 40.7708C30.9167 41.6881 34.3329 40.0948 35.1861 37.2169C33.351 38.3781 30.84 38.7369 28.2259 38.0364C25.6118 37.336 23.6275 35.7727 22.6079 33.8466Z" fill="white"/>
<path d="M29.6911 32.5677C26.6724 31.7588 24.3233 29.6758 23.586 27.1336C23.2663 26.0515 23.2502 24.8867 23.5492 23.771C24.0532 21.8898 25.3702 20.3436 27.2481 19.4165C29.0843 18.5135 31.2545 18.3331 33.3545 18.8958C35.4545 19.4585 37.2328 20.6969 38.3854 22.3891C39.5453 24.1418 39.9127 26.1393 39.4086 28.0206C39.1097 29.1362 38.5162 30.126 37.6954 30.9142C35.7858 32.7471 32.7099 33.3766 29.6911 32.5677ZM32.9149 20.5364C31.2087 20.0792 29.4594 20.2201 27.9859 20.9506C26.5569 21.6462 25.5649 22.8106 25.1898 24.2106C24.97 25.031 24.9836 25.8552 25.2146 26.6556C25.7964 28.6403 27.6807 30.2706 30.1308 30.9271C32.5808 31.5835 35.0307 31.1029 36.524 29.686C37.1352 29.1112 37.5482 28.4013 37.768 27.581C38.1431 26.1809 37.8663 24.6766 36.9714 23.3349C36.0547 21.9873 34.6212 20.9936 32.9149 20.5364Z" fill="white"/>
<path d="M28.2258 38.0365C23.7086 36.8261 21.0639 33.0461 22.0838 29.2398L23.5492 23.771C24.5837 19.9101 28.9795 17.7235 33.3545 18.8958C35.4545 19.4585 37.2328 20.6969 38.3854 22.3891C39.5453 24.1418 39.9127 26.1393 39.4086 28.0206L37.9433 33.4893C36.9234 37.2956 32.743 39.2469 28.2258 38.0365ZM32.9149 20.5364C29.4477 19.6074 25.9811 21.2575 25.1898 24.2106L23.7244 29.6794C22.9566 32.5451 25.0779 35.4346 28.6654 36.3958C32.2529 37.3571 35.5348 35.9154 36.3026 33.0497L37.768 27.581C38.1431 26.1809 37.8663 24.6766 36.9714 23.3349C36.0547 21.9873 34.6212 20.9936 32.9149 20.5364Z" fill="white"/>
</svg>
