<svg width="21" height="26" viewBox="0 0 21 26" fill="none" xmlns="http://www.w3.org/2000/svg">
<path fill-rule="evenodd" clip-rule="evenodd" d="M0.216797 11.1927C0.216797 5.3626 4.86611 0.650391 10.4899 0.650391C16.1296 0.650391 20.7789 5.3626 20.7789 11.1927C20.7789 14.1305 19.7593 16.858 18.081 19.1697C16.2296 21.7197 13.9476 23.9415 11.379 25.6854C10.7912 26.0885 10.2606 26.1189 9.61543 25.6854C7.03221 23.9415 4.75024 21.7197 2.91467 19.1697C1.23521 16.858 0.216797 14.1305 0.216797 11.1927ZM7.10387 11.5214C7.10387 13.4745 8.62477 15.0106 10.4896 15.0106C12.3557 15.0106 13.8912 13.4745 13.8912 11.5214C13.8912 9.58353 12.3557 7.97266 10.4896 7.97266C8.62477 7.97266 7.10387 9.58353 7.10387 11.5214Z" fill="#FED21C"/>
</svg>
