<svg width="23" height="22" viewBox="0 0 23 22" fill="none" xmlns="http://www.w3.org/2000/svg">
<path fill-rule="evenodd" clip-rule="evenodd" d="M16.9399 0C18.4605 0 19.9233 0.62976 20.9994 1.75976C22.0767 2.88739 22.6788 4.40832 22.6788 6.00054V15.3875C22.6788 18.7027 20.1047 21.3881 16.9399 21.3881H5.73773C2.57291 21.3881 0 18.7027 0 15.3875V6.00054C0 2.68539 2.56157 0 5.73773 0H16.9399ZM18.744 7.77128L18.8347 7.67622C19.1057 7.33163 19.1057 6.83258 18.8222 6.48799C18.6646 6.31095 18.448 6.20282 18.2224 6.17905C17.9843 6.16598 17.7575 6.25035 17.5862 6.4167L12.4733 10.6943C11.8156 11.2659 10.8733 11.2659 10.2054 10.6943L5.1027 6.4167C4.75005 6.14341 4.26245 6.17905 3.96876 6.49988C3.6626 6.8207 3.62858 7.33163 3.88825 7.6881L4.0368 7.84257L9.19623 12.0608C9.83123 12.5836 10.6012 12.8688 11.4074 12.8688C12.2114 12.8688 12.9949 12.5836 13.6288 12.0608L18.744 7.77128Z" fill="#FED21C"/>
</svg>
