<svg width="22" height="23" viewBox="0 0 22 23" fill="none" xmlns="http://www.w3.org/2000/svg">
<path d="M17.7845 14.2353C17.0456 14.0704 16.461 14.429 15.9435 14.7422C15.4134 15.0649 14.4044 15.9196 13.8278 15.6997C10.8699 14.4278 8.08802 11.7202 6.88376 8.61694C6.67151 7.99892 7.48532 6.9386 7.79064 6.37915C8.08915 5.83644 8.42512 5.21842 8.27189 4.44141C8.13342 3.7421 6.34236 1.35967 5.70902 0.708175C5.2902 0.277831 4.86343 0.0411415 4.42418 0.00169332C2.77273 -0.0712261 0.928324 2.23231 0.604844 2.78339C-0.206694 3.95847 -0.201019 5.52205 0.618464 7.41796C2.5934 12.5104 10.0629 20.1956 14.9526 22.3377C15.8538 22.7788 16.6801 23 17.4213 23C18.1465 23 18.7924 22.7884 19.3474 22.3688C19.7651 22.1166 22.0601 20.0928 21.9988 18.32C21.9636 17.8681 21.7377 17.4163 21.3314 16.9788C20.7117 16.3105 18.4485 14.3824 17.7845 14.2353Z" fill="#FED21C"/>
</svg>
