<svg width="32" height="32" viewBox="0 0 32 32" fill="none" xmlns="http://www.w3.org/2000/svg">
<rect width="32" height="32" rx="6" fill="#FED21C"/>
<g clip-path="url(#clip0_1698_14694)">
<path d="M4 16C4 9.37258 9.37258 4 16 4C22.6274 4 28 9.37258 28 16C28 22.6274 22.6274 28 16 28C9.37258 28 4 22.6274 4 16Z" fill="#FED21C"/>
<path d="M19.894 15.4157C19.8239 15.3827 19.7527 15.3509 19.6806 15.3204C19.555 13.0449 18.2904 11.7421 16.167 11.7287C16.1573 11.7287 16.1478 11.7287 16.1381 11.7287C14.8681 11.7287 13.8117 12.2617 13.1616 13.2317L14.3294 14.0194C14.8151 13.2949 15.5773 13.1404 16.1387 13.1404C16.1452 13.1404 16.1517 13.1404 16.1581 13.1405C16.8573 13.1448 17.3849 13.3447 17.7264 13.7345C17.9749 14.0183 18.1411 14.4104 18.2234 14.9053C17.6035 14.8017 16.9331 14.7699 16.2164 14.8103C14.1975 14.9246 12.8996 16.0823 12.9868 17.691C13.031 18.507 13.4445 19.209 14.1509 19.6676C14.7482 20.0553 15.5175 20.2448 16.317 20.2019C17.3728 20.145 18.2011 19.7489 18.779 19.0247C19.2179 18.4747 19.4954 17.7619 19.618 16.8638C20.1212 17.1624 20.4941 17.5553 20.7 18.0277C21.0502 18.8306 21.0707 20.15 19.9757 21.2257C19.0164 22.168 17.8632 22.5757 16.1205 22.5883C14.1873 22.5742 12.7253 21.9646 11.7747 20.7764C10.8845 19.6638 10.4245 18.0568 10.4074 16C10.4245 13.9432 10.8845 12.3361 11.7747 11.2236C12.7253 10.0354 14.1873 9.42583 16.1205 9.41171C18.0677 9.42594 19.5552 10.0385 20.5421 11.2323C21.0261 11.8178 21.3909 12.5541 21.6315 13.4125L23 13.0535C22.7084 11.9969 22.2497 11.0863 21.6254 10.3312C20.3601 8.80056 18.5096 8.01626 16.1252 8H16.1157C13.7362 8.01621 11.9064 8.80348 10.6771 10.3399C9.58327 11.7072 9.01902 13.6096 9.00006 15.9944L9 16L9.00006 16.0056C9.01902 18.3903 9.58327 20.2928 10.6771 21.6601C11.9064 23.1965 13.7362 23.9838 16.1157 24H16.1252C18.2407 23.9856 19.7319 23.441 20.9603 22.2343C22.5675 20.6555 22.5191 18.6766 21.9894 17.4618C21.6094 16.5906 20.8848 15.883 19.894 15.4157ZM16.2414 18.7923C15.3566 18.8413 14.4373 18.4508 14.392 17.6143C14.3584 16.9942 14.8409 16.3022 16.2957 16.2197C16.4623 16.2103 16.6258 16.2057 16.7864 16.2057C17.3149 16.2057 17.8092 16.2561 18.2587 16.3528C18.091 18.4113 17.1077 18.7455 16.2414 18.7923Z" fill="#041E2E"/>
</g>
<defs>
<clipPath id="clip0_1698_14694">
<rect width="24" height="24" fill="white" transform="translate(4 4)"/>
</clipPath>
</defs>
</svg>
