<svg width="25" height="20" viewBox="0 0 25 20" fill="none" xmlns="http://www.w3.org/2000/svg">
<path d="M24.0515 2.29489C23.1679 2.6965 22.2156 2.96041 21.2287 3.08663C22.2385 2.47849 23.0188 1.51463 23.386 0.355709C22.4336 0.929432 21.3779 1.33104 20.2649 1.56053C19.3584 0.573724 18.0847 0 16.639 0C13.9425 0 11.7394 2.2031 11.7394 4.92255C11.7394 5.31268 11.7853 5.69134 11.8656 6.04705C7.78067 5.84051 4.14326 3.87837 1.72215 0.906483C1.29759 1.62937 1.05663 2.47849 1.05663 3.37349C1.05663 5.08319 1.91721 6.59782 3.24825 7.45841C2.43356 7.45841 1.67625 7.22892 1.01073 6.88468V6.91911C1.01073 9.3058 2.70895 11.3024 4.95795 11.7499C4.23589 11.9475 3.47785 11.975 2.74338 11.8302C3.05503 12.8084 3.66539 13.6643 4.48866 14.2776C5.31193 14.8909 6.30671 15.2309 7.33316 15.2496C5.59321 16.627 3.43643 17.3716 1.21727 17.3609C0.827139 17.3609 0.437007 17.3379 0.046875 17.292C2.22702 18.6919 4.82025 19.5066 7.59708 19.5066C16.639 19.5066 21.6074 12.0023 21.6074 5.49627C21.6074 5.27826 21.6074 5.07172 21.5959 4.8537C22.5598 4.16523 23.3859 3.29317 24.0515 2.29489Z" fill="white"/>
</svg>
