<svg width="24" height="24" viewBox="0 0 24 24" fill="none" xmlns="http://www.w3.org/2000/svg">
<path d="M17.344 0.1875H6.75169C5.1135 0.189252 3.5429 0.840799 2.38452 1.99918C1.22614 3.15756 0.574598 4.72815 0.572845 6.36635V16.9587C0.574598 18.5968 1.22614 20.1674 2.38452 21.3258C3.5429 22.4842 5.1135 23.1357 6.75169 23.1375H17.344C18.9822 23.1357 20.5528 22.4842 21.7112 21.3258C22.8695 20.1674 23.5211 18.5968 23.5228 16.9587V6.36635C23.5211 4.72815 22.8695 3.15756 21.7112 1.99918C20.5528 0.840799 18.9822 0.189252 17.344 0.1875ZM12.0478 16.9587C11.0004 16.9587 9.97641 16.648 9.10546 16.0661C8.23451 15.4841 7.55569 14.657 7.15484 13.6893C6.75398 12.7215 6.6491 11.6566 6.85346 10.6293C7.05781 9.60192 7.56222 8.65823 8.3029 7.91755C9.04358 7.17687 9.98726 6.67246 11.0146 6.46811C12.042 6.26376 13.1069 6.36864 14.0746 6.76949C15.0423 7.17035 15.8695 7.84917 16.4514 8.72011C17.0334 9.59106 17.344 10.615 17.344 11.6625C17.3425 13.0667 16.7841 14.4129 15.7912 15.4058C14.7983 16.3987 13.452 16.9572 12.0478 16.9587ZM18.668 6.36635C18.4062 6.36635 18.1502 6.28869 17.9324 6.14321C17.7147 5.99772 17.545 5.79093 17.4448 5.549C17.3446 5.30706 17.3184 5.04084 17.3694 4.784C17.4205 4.52716 17.5466 4.29124 17.7318 4.10607C17.917 3.9209 18.1529 3.7948 18.4097 3.74371C18.6666 3.69262 18.9328 3.71884 19.1747 3.81906C19.4167 3.91927 19.6234 4.08897 19.7689 4.30671C19.9144 4.52445 19.9921 4.78044 19.9921 5.04231C19.9921 5.39346 19.8526 5.73024 19.6043 5.97854C19.356 6.22685 19.0192 6.36635 18.668 6.36635ZM15.5786 11.6625C15.5786 12.3608 15.3715 13.0435 14.9836 13.6241C14.5956 14.2047 14.0442 14.6573 13.399 14.9245C12.7538 15.1917 12.0439 15.2617 11.359 15.1254C10.6741 14.9892 10.045 14.6529 9.55122 14.1591C9.05743 13.6653 8.72115 13.0362 8.58492 12.3513C8.44868 11.6664 8.5186 10.9565 8.78584 10.3113C9.05308 9.66617 9.50562 9.11474 10.0863 8.72677C10.6669 8.33881 11.3495 8.13173 12.0478 8.13173C12.9843 8.13173 13.8823 8.50372 14.5445 9.16587C15.2066 9.82802 15.5786 10.7261 15.5786 11.6625Z" fill="white"/>
</svg>
