<svg width="25" height="20" viewBox="0 0 25 20" fill="none" xmlns="http://www.w3.org/2000/svg">
<path d="M20.388 2.19217C18.8619 1.48076 17.2096 0.964405 15.4884 0.666068C15.4733 0.665586 15.4583 0.668418 15.4444 0.674365C15.4306 0.680313 15.4182 0.689232 15.4081 0.700492C15.2016 1.07915 14.9606 1.57255 14.8 1.95121C12.9744 1.67582 11.1178 1.67582 9.29221 1.95121C9.13157 1.56108 8.89061 1.07915 8.67259 0.700492C8.66112 0.677543 8.62669 0.666068 8.59227 0.666068C6.8711 0.964405 5.23025 1.48076 3.69267 2.19217C3.6812 2.19217 3.66972 2.20365 3.65825 2.21512C0.537194 6.88523 -0.323392 11.4291 0.101164 15.9271C0.101164 15.9501 0.112638 15.973 0.135587 15.9845C2.20099 17.4991 4.18608 18.4171 6.14821 19.0252C6.18263 19.0367 6.21706 19.0252 6.22853 19.0023C6.68751 18.3712 7.10059 17.7057 7.4563 17.0057C7.47925 16.9598 7.4563 16.9139 7.4104 16.9024C6.75636 16.65 6.13673 16.3517 5.52859 16.0074C5.48269 15.9845 5.48269 15.9156 5.51711 15.8812C5.64333 15.7894 5.76955 15.6862 5.89577 15.5944C5.91872 15.5714 5.95314 15.5714 5.97609 15.5829C9.92331 17.3844 14.1803 17.3844 18.0817 15.5829C18.1046 15.5714 18.139 15.5714 18.162 15.5944C18.2882 15.6976 18.4144 15.7894 18.5406 15.8927C18.5865 15.9271 18.5865 15.996 18.5292 16.0189C17.9325 16.3746 17.3014 16.6615 16.6474 16.9139C16.6015 16.9254 16.59 16.9828 16.6015 17.0172C16.9686 17.7171 17.3817 18.3827 17.8292 19.0137C17.8636 19.0252 17.8981 19.0367 17.9325 19.0252C19.9061 18.4171 21.8912 17.4991 23.9566 15.9845C23.9795 15.973 23.991 15.9501 23.991 15.9271C24.4959 10.7292 23.1534 6.21971 20.4339 2.21512C20.4224 2.20365 20.411 2.19217 20.388 2.19217ZM8.05297 13.1847C6.8711 13.1847 5.8843 12.0946 5.8843 10.7521C5.8843 9.40962 6.84815 8.31954 8.05297 8.31954C9.26927 8.31954 10.2331 9.42109 10.2216 10.7521C10.2216 12.0946 9.25779 13.1847 8.05297 13.1847ZM16.0507 13.1847C14.8688 13.1847 13.882 12.0946 13.882 10.7521C13.882 9.40962 14.8459 8.31954 16.0507 8.31954C17.267 8.31954 18.2308 9.42109 18.2194 10.7521C18.2194 12.0946 17.267 13.1847 16.0507 13.1847Z" fill="white"/>
</svg>
